<svg width="8" height="10" fill="none" xmlns="http://www.w3.org/2000/svg"><path d="M.462 5.296h.994V.298C1.811.214 2.189.158 2.59.13 3 .102 3.407.088 3.808.088c.43 0 .85.042 1.26.126.42.084.789.238 1.106.462.327.224.588.527.784.91.196.383.294.873.294 1.47 0 .588-.103 1.078-.308 1.47-.196.392-.462.71-.798.952a3.078 3.078 0 01-1.134.518 5.94 5.94 0 01-1.288.168l-1.106.014v.994h2.324v.868H2.618V10H1.456V8.04H.462v-.868h.994V6.164H.462v-.868zm3.374-4.228c-.243 0-.476.01-.7.028a3.24 3.24 0 00-.518.056v4.06h1.064c.28 0 .56-.028.84-.084a1.95 1.95 0 00.756-.322c.224-.159.406-.373.546-.644.14-.28.205-.644.196-1.092.01-.383-.047-.7-.168-.952a1.445 1.445 0 00-.476-.616 1.746 1.746 0 00-.7-.336 3.455 3.455 0 00-.84-.098z" fill="#333"/></svg>